<svg width="21" height="21" viewBox="0 0 21 21" fill="none" xmlns="http://www.w3.org/2000/svg">
<path d="M10.5 0C7.7156 0 5.04488 1.10619 3.07492 3.07492C1.10611 5.04475 0 7.7156 0 10.5C0 13.2844 1.10619 15.9551 3.07492 17.9251C5.04475 19.8939 7.7156 21 10.5 21C13.2855 21 15.9562 19.8938 17.9251 17.9251C19.8939 15.9552 21 13.2844 21 10.5C20.9969 7.7156 19.8897 5.04698 17.9209 3.07911C15.9531 1.1103 13.2844 0.00314356 10.5 0ZM4.53615 17.6663V16.559C4.53308 15.3669 4.88818 14.2014 5.55637 13.2148C6.22356 12.2274 7.17318 11.464 8.28026 11.024L8.69673 10.8572L8.3222 10.6095C7.29378 9.93313 6.63785 8.81774 6.5468 7.59092C6.45675 6.36399 6.94076 5.1647 7.85865 4.34494C8.5811 3.69309 9.52049 3.33289 10.4945 3.33596C10.649 3.33596 10.8036 3.34517 10.957 3.36154C12.1717 3.50276 13.2533 4.19757 13.8868 5.24338L13.9605 5.37436C14.026 5.49204 14.0864 5.61279 14.1406 5.7366L14.1437 5.74274C14.1918 5.85326 14.2327 5.9648 14.2696 6.07837C14.2767 6.09884 14.2839 6.12033 14.29 6.14079C14.3207 6.23903 14.3453 6.33829 14.3678 6.43856C14.3739 6.46619 14.3821 6.49382 14.3872 6.52247C14.4118 6.64629 14.4312 6.77113 14.4445 6.89802L14.4435 6.897C14.5162 7.61842 14.3903 8.34495 14.0792 8.99986C13.7671 9.65374 13.2831 10.2104 12.6773 10.6095L12.3028 10.8571L12.7192 11.0239C12.8717 11.0853 13.0211 11.1529 13.1674 11.2265C13.1797 11.2327 13.191 11.2398 13.2033 11.246C14.2358 11.774 15.0933 12.5896 15.6725 13.5934L15.74 13.7111L15.7421 13.7121C16.2158 14.586 16.4635 15.5643 16.4635 16.5589V17.6661C14.7894 19.0618 12.6794 19.8273 10.4996 19.8273C8.31983 19.8273 6.20931 19.062 4.53615 17.6663Z" fill="#6B6B6B"/>
</svg>
