<svg width="16" height="21" viewBox="0 0 16 21" fill="none" xmlns="http://www.w3.org/2000/svg">
<path d="M3.41627 10.0684V6.11296C3.41627 3.70373 5.35803 1.76197 7.76726 1.76197H7.87513C10.2844 1.76197 12.2261 3.70373 12.2261 6.11296V10.1044H13.9881V6.11296C13.9881 2.73285 11.2552 0 7.87513 0H7.76726C4.38715 0 1.6543 2.73285 1.6543 6.11296V10.1044H3.41627V10.0684Z" fill="#6B6B6B"/>
<path d="M14.743 10.3561H0.863007C0.395545 10.3561 0 10.7517 0 11.2191V20.1368C0 20.6043 0.395545 20.9999 0.863007 20.9999H14.743C15.2105 20.9999 15.606 20.6043 15.606 20.1368V11.2191C15.606 10.7517 15.2105 10.3561 14.743 10.3561ZM8.48623 16.505L8.34239 16.5769V18.267C8.34239 18.5547 8.09068 18.8064 7.80302 18.8064C7.51535 18.8064 7.26364 18.5547 7.26364 18.267V16.5769L7.1198 16.505C6.65234 16.2533 6.36467 15.7859 6.36467 15.2105C6.36467 14.4194 7.01193 13.7722 7.80302 13.7722C8.5941 13.7722 9.24136 14.4194 9.24136 15.2105C9.24136 15.7859 8.95369 16.2533 8.48623 16.505Z" fill="#6B6B6B"/>
</svg>
